<svg xmlns="http://www.w3.org/2000/svg" width="101" height="100" fill="none" viewBox="0 0 101 100">
  <g clip-path="url(#a)">
    <path fill="#fff" d="M80.896 47.377c.576.983.519 2.164-.074 3.104L66.55 74.294c-.244.56-.684 1.028-1.243 1.355-.559.328-1.182.485-1.79.424l-27.749.835a3.019 3.019 0 0 1-1.587-.341 2.91 2.91 0 0 1-1.158-1.11L19.363 52.17c-.577-.984-.52-2.165.074-3.104l14.27-23.814c.244-.56.685-1.027 1.243-1.355.559-.328 1.182-.485 1.79-.424l27.75-.835c1.109-.059 2.168.467 2.745 1.45l13.66 23.29ZM38.214 29.459 26.91 47.741l21.954-.125L59.15 28.83l-20.936.63Z"/>
  </g>
  <defs>
    <clipPath id="a">
      <path fill="#fff" d="M0 37.44 63.83 0l36.428 62.104-63.829 37.44z"/>
    </clipPath>
  </defs>
</svg>
