<?xml version="1.0" standalone="no"?>
<!DOCTYPE svg PUBLIC "-//W3C//DTD SVG 20010904//EN"
 "http://www.w3.org/TR/2001/REC-SVG-20010904/DTD/svg10.dtd">
<svg version="1.0" xmlns="http://www.w3.org/2000/svg"
 width="848.000000pt" height="376.000000pt" viewBox="0 0 848.000000 376.000000"
 preserveAspectRatio="xMidYMid meet">

<g transform="translate(0.000000,376.000000) scale(0.100000,-0.100000)"
fill="#000000" stroke="none">
<path d="M0 1880 l0 -1880 4240 0 4240 0 0 1880 0 1880 -4240 0 -4240 0 0
-1880z m2384 830 c14 -14 131 -207 261 -429 182 -310 237 -412 237 -437 0 -26
-58 -130 -258 -465 -142 -237 -268 -438 -281 -446 -19 -13 -111 -18 -534 -31
-503 -15 -511 -15 -536 5 -36 26 -513 840 -513 874 0 40 509 889 546 911 25
15 91 19 469 31 563 19 578 19 609 -13z m1340 -636 c19 -18 21 -55 4 -72 -29
-29 -98 -4 -98 35 0 44 63 69 94 37z m-254 -26 c46 -24 90 -77 90 -109 0 -16
-8 -19 -46 -19 -38 0 -49 5 -71 30 -20 24 -33 30 -66 30 -47 0 -77 -22 -77
-56 0 -30 29 -48 110 -69 113 -29 153 -67 154 -146 1 -55 -22 -93 -75 -124
-26 -16 -52 -20 -114 -20 -120 0 -176 35 -195 122 l-8 33 54 0 c40 0 54 -4 54
-14 0 -27 50 -56 96 -56 73 0 112 61 61 94 -12 9 -61 26 -107 40 -108 31 -140
62 -140 136 0 43 5 56 33 86 59 64 166 82 247 42z m3643 11 c53 -14 103 -62
111 -104 9 -48 -14 -98 -55 -117 l-33 -17 26 -6 c14 -4 38 -20 54 -36 55 -57
29 -155 -53 -195 -54 -26 -166 -26 -212 1 -37 22 -66 57 -76 93 -6 21 -3 22
44 22 39 0 53 -4 61 -19 15 -29 69 -44 108 -30 90 31 56 129 -45 129 l-44 0 3
38 c3 36 4 37 52 43 76 8 103 67 50 108 -37 29 -70 26 -106 -9 -24 -24 -38
-30 -74 -30 -50 0 -54 9 -24 57 40 67 127 96 213 72z m-2133 -244 l0 -245 -55
0 -55 0 0 245 0 245 55 0 55 0 0 -245z m1560 155 c0 -49 2 -90 4 -90 3 0 18
14 34 30 58 57 160 32 203 -50 41 -76 15 -234 -44 -273 -58 -38 -140 -28 -176
21 l-20 27 -1 -32 c0 -32 -1 -33 -45 -33 l-45 0 0 245 0 245 45 0 45 0 0 -90z
m-2800 -215 l0 -185 -55 0 -55 0 0 178 c0 98 3 182 7 185 3 4 28 7 55 7 l48 0
0 -185z m180 156 l0 -29 29 29 c24 24 38 29 76 29 38 0 52 -5 76 -29 l29 -29
29 29 c25 24 37 29 80 29 42 0 56 -5 83 -29 l33 -29 3 -156 3 -156 -50 0 -51
0 0 125 c0 112 -2 127 -20 145 -11 11 -29 20 -40 20 -11 0 -29 -9 -40 -20 -18
-18 -20 -33 -20 -145 l0 -125 -50 0 -50 0 0 128 c0 117 -2 131 -20 147 -16 15
-26 17 -48 9 -42 -15 -52 -47 -52 -171 l0 -113 -50 0 -50 0 0 185 0 185 50 0
c49 0 50 -1 50 -29z m620 -2 l0 -31 35 31 c66 58 167 33 209 -53 28 -57 25
-162 -6 -217 -43 -78 -146 -103 -204 -48 l-24 22 0 -91 0 -92 -55 0 -55 0 0
255 0 255 50 0 c49 0 50 0 50 -31z m787 5 c40 -30 63 -74 70 -133 l6 -51 -127
0 c-123 0 -126 -1 -126 -22 0 -59 95 -92 135 -48 18 20 66 27 99 14 14 -5 14
-9 1 -34 -49 -95 -226 -107 -299 -19 -13 16 -30 54 -36 84 -19 93 17 179 95
224 33 19 149 9 182 -15z m237 -86 c14 -62 26 -120 26 -128 0 -38 20 16 46
123 l28 117 48 0 c54 0 44 18 89 -163 12 -48 24 -86 26 -83 3 2 17 58 32 123
l27 118 47 3 c32 2 47 -1 47 -9 0 -7 -21 -90 -47 -186 l-46 -173 -53 0 c-60 0
-52 -11 -95 148 -12 45 -25 79 -29 75 -4 -4 -20 -57 -36 -116 l-29 -108 -54 3
-54 3 -48 175 c-27 96 -48 178 -49 183 0 4 22 7 49 7 l49 0 26 -112z m733 86
c47 -35 66 -70 71 -129 l4 -55 -126 0 c-118 0 -126 -1 -126 -19 0 -11 11 -32
24 -47 30 -36 84 -38 119 -6 20 19 31 22 64 16 33 -5 40 -10 36 -24 -16 -61
-133 -105 -214 -81 -157 47 -174 288 -24 357 43 20 138 13 172 -12z"/>
<path d="M1763 2516 c-201 -7 -346 -15 -351 -21 -14 -16 -362 -583 -369 -601
-6 -15 19 -16 363 -9 259 5 372 10 380 18 16 17 334 604 334 616 0 6 -3 10 -7
9 -5 -1 -162 -6 -350 -12z"/>
<path d="M6571 1841 c-28 -28 -37 -87 -20 -135 26 -74 102 -88 135 -24 21 40
15 129 -11 158 -24 26 -78 27 -104 1z"/>
<path d="M4570 1835 c-30 -32 -34 -117 -7 -158 55 -84 154 -4 133 107 -14 74
-80 100 -126 51z"/>
<path d="M5195 1859 c-25 -14 -45 -39 -45 -56 0 -10 20 -13 75 -13 81 0 91 9
58 48 -22 26 -62 35 -88 21z"/>
<path d="M6165 1858 c-25 -13 -45 -38 -45 -55 0 -10 21 -13 80 -13 90 0 100
11 55 55 -26 27 -58 31 -90 13z"/>
</g>
</svg>
