<svg xmlns="http://www.w3.org/2000/svg" width="121" height="21" fill="none" viewBox="0 0 121 21">
  <path fill="#fff" d="M9.155 5.638c-.057-.573-.3-1.018-.732-1.335-.43-.318-1.015-.476-1.754-.476-.502 0-.926.07-1.271.213-.346.137-.611.329-.796.575-.18.246-.27.526-.27.838-.01.26.045.488.164.682.123.194.29.362.504.504.213.138.46.258.739.362.279.1.577.185.895.256l1.306.313a9.218 9.218 0 0 1 1.747.568c.53.237.99.528 1.378.873.389.346.69.753.902 1.222.218.469.33 1.006.334 1.612-.005.89-.232 1.662-.682 2.316-.445.648-1.089 1.152-1.931 1.512-.839.355-1.85.533-3.033.533-1.174 0-2.197-.18-3.068-.54-.867-.36-1.544-.892-2.032-1.598-.483-.71-.736-1.588-.76-2.635h2.976c.033.488.173.895.42 1.222a2.33 2.33 0 0 0 1 .731c.422.161.898.242 1.428.242.521 0 .973-.076 1.357-.227.388-.152.689-.363.902-.633.213-.27.32-.58.32-.93a1.21 1.21 0 0 0-.292-.824c-.19-.222-.469-.412-.838-.568a8.523 8.523 0 0 0-1.342-.426l-1.584-.398c-1.226-.298-2.195-.765-2.905-1.399S1.174 6.733 1.18 5.659c-.005-.88.23-1.65.703-2.308.478-.658 1.134-1.172 1.967-1.541.834-.37 1.78-.554 2.841-.554 1.08 0 2.022.184 2.827.554.81.369 1.44.883 1.89 1.54.45.659.681 1.421.695 2.288H9.155ZM14.313 16V5.09h3.025V16h-3.025Zm1.52-12.315c-.45 0-.836-.15-1.158-.448a1.45 1.45 0 0 1-.476-1.086c0-.417.159-.775.476-1.073a1.63 1.63 0 0 1 1.158-.454c.45 0 .833.151 1.15.454.322.298.483.656.483 1.073 0 .421-.16.783-.483 1.086-.317.299-.7.448-1.15.448ZM19.763 16V5.09h2.883v1.926h.127a3.026 3.026 0 0 1 1.137-1.513c.53-.37 1.165-.554 1.903-.554.748 0 1.385.187 1.91.56.526.37.877.872 1.052 1.507h.114a2.902 2.902 0 0 1 1.207-1.499c.587-.379 1.28-.568 2.08-.568 1.019 0 1.845.324 2.48.973.639.644.958 1.558.958 2.741V16h-3.018V9.26c0-.606-.161-1.06-.483-1.364-.322-.303-.724-.454-1.207-.454-.55 0-.978.175-1.286.525-.308.346-.462.803-.462 1.371V16h-2.933V9.196c0-.535-.154-.961-.462-1.278-.303-.318-.703-.476-1.2-.476a1.67 1.67 0 0 0-.909.255c-.265.166-.476.4-.632.704a2.236 2.236 0 0 0-.234 1.05V16h-3.026Zm18.241 4.09v-15h2.983v1.833h.135a4 4 0 0 1 .575-.895c.256-.307.588-.563.995-.767.412-.208.923-.312 1.534-.312a4.1 4.1 0 0 1 2.202.625c.672.412 1.21 1.034 1.612 1.868.402.828.604 1.868.604 3.118 0 1.216-.197 2.244-.59 3.082-.388.833-.919 1.466-1.59 1.896a4.084 4.084 0 0 1-2.245.64c-.587 0-1.087-.098-1.499-.292a3.1 3.1 0 0 1-1.001-.731 3.711 3.711 0 0 1-.597-.902h-.092v5.838h-3.026Zm2.962-9.544c0 .648.09 1.214.27 1.697.18.483.44.86.781 1.13.341.264.755.397 1.243.397.492 0 .909-.135 1.25-.405.34-.275.599-.653.774-1.136.18-.488.27-1.05.27-1.683 0-.63-.088-1.184-.263-1.662-.175-.479-.433-.853-.774-1.123-.34-.27-.76-.404-1.257-.404-.492 0-.91.13-1.25.39-.336.26-.594.63-.774 1.108-.18.478-.27 1.042-.27 1.69Zm12.72-9.091V16H50.66V1.455h3.026Zm7.395 14.758c-1.122 0-2.088-.227-2.897-.682a4.669 4.669 0 0 1-1.861-1.946c-.436-.843-.654-1.84-.654-2.99 0-1.122.218-2.107.654-2.954a4.83 4.83 0 0 1 1.84-1.982c.795-.473 1.728-.71 2.798-.71.72 0 1.39.116 2.01.348.625.227 1.169.57 1.633 1.03.469.459.833 1.037 1.094 1.733.26.69.39 1.5.39 2.429v.83h-9.211V9.446h6.363c0-.436-.094-.822-.284-1.158a2.035 2.035 0 0 0-.788-.788 2.249 2.249 0 0 0-1.158-.292c-.459 0-.866.107-1.221.32-.35.208-.625.49-.824.845-.199.35-.3.741-.306 1.172v1.783c0 .54.1 1.006.299 1.399.203.393.49.696.86.909.368.213.806.32 1.313.32.336 0 .644-.048.923-.143.28-.094.519-.236.718-.426.199-.189.35-.421.454-.696l2.799.185a3.82 3.82 0 0 1-.874 1.761c-.436.498-1 .886-1.69 1.165-.687.275-1.48.412-2.38.412Z"/>
  <path fill="#62BF9D" d="M70.137 16 67.168 5.09h3.061l1.69 7.33h.1l1.761-7.33h3.004l1.79 7.288h.093l1.662-7.287h3.053L80.421 16h-3.203l-1.875-6.86h-.135L73.333 16h-3.196Zm19.558.213c-1.123 0-2.088-.227-2.898-.682a4.669 4.669 0 0 1-1.86-1.946c-.436-.843-.654-1.84-.654-2.99 0-1.122.218-2.107.653-2.954a4.83 4.83 0 0 1 1.84-1.982c.795-.473 1.728-.71 2.798-.71.72 0 1.39.116 2.01.348.625.227 1.17.57 1.633 1.03.47.459.834 1.037 1.094 1.733.26.69.39 1.5.39 2.429v.83h-9.21V9.446h6.363c0-.436-.095-.822-.284-1.158a2.035 2.035 0 0 0-.789-.788 2.248 2.248 0 0 0-1.157-.292c-.46 0-.867.107-1.222.32-.35.208-.625.49-.824.845-.199.35-.3.741-.305 1.172v1.783c0 .54.1 1.006.298 1.399.204.393.49.696.86.909.369.213.807.32 1.313.32.337 0 .644-.048.924-.143a1.842 1.842 0 0 0 1.171-1.122l2.799.185a3.822 3.822 0 0 1-.874 1.761c-.435.498-.999.886-1.69 1.165-.687.275-1.48.412-2.38.412ZM96.733 16V1.455h3.025v5.468h.093a3.99 3.99 0 0 1 .575-.895c.256-.307.587-.563.994-.767.412-.208.924-.312 1.535-.312.795 0 1.529.208 2.201.625.673.412 1.21 1.034 1.612 1.868.403.828.604 1.868.604 3.118 0 1.216-.196 2.244-.589 3.082-.389.833-.919 1.466-1.591 1.896a4.086 4.086 0 0 1-2.245.64c-.587 0-1.086-.098-1.498-.292a3.111 3.111 0 0 1-1.002-.731 3.723 3.723 0 0 1-.596-.902h-.135V16h-2.983Zm2.962-5.454c0 .648.09 1.214.27 1.697.179.483.44.86.781 1.13.341.264.755.397 1.243.397.492 0 .909-.135 1.25-.405.341-.275.599-.653.774-1.136.18-.488.27-1.05.27-1.683 0-.63-.088-1.184-.263-1.662-.175-.479-.433-.853-.774-1.123s-.76-.404-1.257-.404c-.493 0-.909.13-1.25.39-.337.26-.595.63-.775 1.108-.18.478-.27 1.042-.27 1.69Zm15.044 5.653c-1.061 0-2.005-.182-2.834-.547-.824-.37-1.475-.876-1.953-1.52-.473-.649-.717-1.397-.731-2.244h3.096c.019.355.135.667.348.937.218.265.507.471.867.618.359.147.764.22 1.214.22.469 0 .883-.082 1.243-.248.36-.166.642-.396.845-.69.204-.293.306-.631.306-1.015a1.7 1.7 0 0 0-.327-1.03c-.213-.303-.521-.54-.923-.71-.398-.17-.872-.256-1.421-.256h-1.356V7.456h1.356c.464 0 .874-.08 1.229-.242.36-.16.639-.383.838-.667.199-.289.298-.625.298-1.009 0-.364-.087-.684-.263-.958a1.734 1.734 0 0 0-.724-.654 2.358 2.358 0 0 0-1.08-.234c-.416 0-.797.076-1.143.227a1.995 1.995 0 0 0-.831.632c-.208.275-.32.597-.334.966h-2.947c.014-.838.253-1.577.717-2.216.464-.64 1.089-1.139 1.875-1.498.791-.365 1.683-.547 2.678-.547 1.003 0 1.882.182 2.635.547.752.364 1.337.857 1.754 1.477.421.615.63 1.307.625 2.074.005.814-.249 1.494-.76 2.038-.507.545-1.167.89-1.982 1.037v.114c1.07.137 1.885.509 2.444 1.115.563.601.842 1.354.838 2.258a3.554 3.554 0 0 1-.718 2.209c-.478.644-1.138 1.15-1.981 1.52-.843.37-1.809.554-2.898.554Z"/>
</svg>
